<svg xmlns="http://www.w3.org/2000/svg" width="50" height="51" fill="none" stroke="currentColor" style="stroke:none" viewBox="0 0 50 50"><path d="M0 12V0h50v50H0Zm18 34h1l2 2 2 1a5 5 0 0 0 2 1h4l1-1 3-2 3-1 2-2h1l1-1 1-1h1l1-1 2-2a9 9 0 0 0 1-1l1-1a8 8 0 0 0 1-2V19l1-1a6 6 0 0 0 1-3v-2l-1-1a16 16 0 0 0-1-3 2 2 0 0 1 0-1V5a5 5 0 0 0-1-3l-2-1a4 4 0 0 0-1 0H8v1L7 3H6a3 3 0 0 0 0 2v15l-1 1H4a3 3 0 0 0-1 1l-1 1v3l2 1 2 1v1H5l-1 1-1 1-1 1 1 2H2a5 5 0 0 0-1 2 4 4 0 0 0 0 3v1l1 1h3l2-1v1l1 1h1l1 1 2-1 1 1h1l1 1 2 1z"/><path fill="#19c35a" d="m18 46-1-1-2-1-1-1a55 55 0 0 0-1 0l-1-1-2 1-1-1a3 3 0 0 1-1 0 10 10 0 0 1-1-1v-1l-2 1a4 4 0 0 1-2 0 4 4 0 0 1-1 0l-1-1a4 4 0 0 1 0-1 4 4 0 0 1 0-3l1-1 1-1-1-2 1-1 1-1 1-1h1v-1a3 3 0 0 1-2-1 4 4 0 0 1-2-1v-3l1-1 1-1h1l1-1V3h1l1-1V1h37l2 1a5 5 0 0 1 1 3v4l1 1v2l1 1v2l-1 3-1 1v16a4 4 0 0 1-1 2l-1 1a9 9 0 0 1-1 1l-2 2h-1l-1 1-1 1-1 1h-1l-2 2-3 1-3 2a3 3 0 0 1-1 1h-4a5 5 0 0 1-2-1l-2-1-2-2zM46 3V2l-1-1H10L9 2H8L7 3 6 5v16H5a3 3 0 0 0-2 4 3 3 0 0 0 2 2h1v2l-2 1a3 3 0 0 0-1 4v1a3 3 0 0 0-2 3 3 3 0 0 0 1 2 3 3 0 0 0 2 1l3-1a3 3 0 0 0 1 1 4 4 0 0 0 4 1h1l1 1 7 4 2 2h5a5 5 0 0 0 3-1l6-4 7-4 2-2a6 6 0 0 0 2-4V19l1-2v-2 1-5a8 8 0 0 0-1-2V6l-1-2V3l-1-1"/><path fill="#020831" d="M8 2h1V1h36v1h1v1h1v6h1v2h1v6a8 8 0 0 1-1 2v15a6 6 0 0 1-2 4l-2 2-7 4-6 4a5 5 0 0 1-3 1h-3a4 4 0 0 1-2 0l-2-2-7-4-1-1h-1a4 4 0 0 1-4-1 3 3 0 0 1-1-1l-3 1a3 3 0 0 1-2-1 3 3 0 0 1-1-2c0-1 0-2 2-3v-1a3 3 0 0 1 1-4l2-1v-2H5a3 3 0 0 1-2-2 3 3 0 0 1 2-4h1l1-1V6L6 5h1V3zm5 13h1a2 2 0 0 1 0-1l3-1 6-3 2-1 4-2h1l1-1h2V5h2V4H11v1l-1 1v13l2-1v-2zm31 19V23a10 10 0 0 1-7 1v2a1 1 0 0 1 0 1h-1v1l-1 2a11 11 0 0 1-4 3l-4 2-4 2-5 2-1 1v1h1l3 2 4 3a4 4 0 0 0 3 0l2-1 5-4 5-3 3-1 1-2zM34 12l1-1h1a5 5 0 0 1 2-1h1v1h1a4 4 0 0 1 2 3c1 1 0 3-2 3-1 1-3 0-3-2l-1-2-2 2a5 5 0 0 0 0 3c1 1 2 3 4 3l2 1c3 0 6-3 7-5a8 8 0 0 0-1-6v-1a8 8 0 0 0-2-2c-2-2-5-2-8-1a82 82 0 0 0-5 2l-7 3-6 3-3 1-1 1v2h-1v1l-6 2-1 1-1 1 1 1 2-1 6-2 3-2 3-1 3-2 2-1 1 1v1l-4 2-6 3-3 1a1 1 0 0 0-1 1l1 1 2-1 2-1 1 1-1 1-4 2-5 2-3 2v1h3l6-3 1-1h1v2l-4 2-6 3-2 1H3v2h2l4-2 2-2h1l2-1 2-1 1-1 5-2 3-1a1 1 0 0 1 1 0l-1 2-6 3-6 3-3 1v2h2a51 51 0 0 1 1-1l7-3 9-4 4-3a7 7 0 0 0 2-5v-2a6 6 0 0 1-2-1v-1l-1-1v-4l1-1v-1z"/><path fill="#012319" d="M45 2V1H9a2 2 0 0 1 1 0h35z"/><path fill="#1ecb67" d="M48 11V5h-1V4l1 2v3l1 2v5-5z"/><path fill="#20cf70" d="M6 5v16zh1z"/><path fill="#012319" d="M6 5h1V3a4 4 0 0 0 0 2z"/><path fill="#20c76a" d="M45 2V1l1 1z"/><path fill="#012319" d="M9 1v1H8z"/><path fill="#20c76a" d="M47 3h-1z"/><path fill="#012319" d="M8 2 7 3zm38 0v1a1 1 0 0 1 0-1"/><path fill="#fdfefe" d="m15 16 3-1 6-3 7-3 5-2c3-1 6-1 8 1l1 1v2l1 1v3a5 5 0 0 1-1 2l-1 1a6 6 0 0 1-3 2h-2l-1 1a5 5 0 0 1-4-3 5 5 0 0 1 0-3l2-2 1 2c0 2 2 3 3 2 2 0 3-2 2-3 0-2-1-3-2-3l-1-1h-1a6 6 0 0 0-3 1l-1 1a6 6 0 0 0-2 3v1a7 7 0 0 0 0 2v1l1 1h-1l1 1a12 12 0 0 1-1 3 10 10 0 0 1 0 1l-1 2-1 1-1 1a10 10 0 0 1-2 2 19 19 0 0 1-2 2l-3 1-3 1-2 2-3 1-2 1h-2v-1l3-1 6-3 6-3 1-2a1 1 0 0 0-1 0l-3 1-5 2-1 1-2 1-3 1-2 2-4 2H3v-2h1l2-1 6-3 4-2v-2h-1l-1 1-6 3H6a1 1 0 0 1-1 0v-1l3-2 5-2 4-2 1-1-1-1-2 1-2 1-1-1 1-1 3-1 6-3 4-2v-1l-1-1-2 1v-1a3 3 0 0 0-2 0 9 9 0 0 0-2 1l-3 1h-2v-1zm7 10-1 1v1h1l2-1v-1h-1zm5 0v-1q1.5 0 0 0a1 1 0 0 0 0-1l-1 1a1 1 0 0 0 0 1z"/><path fill="#029cf2" d="M44 35a3 3 0 0 1-1 2l-3 1-5 3-5 4-2 1a4 4 0 0 1-3 0l-4-3-3-2h-1l1-1h2v-1h1v1-1h2v-1l1 1 1-1v3h3l1-1 1-1h1v-1h2l1-1h1v-1h1v-1h1v-1l1-1h-3v1l-1-1h2v-1l1-1h-1v-1l1-1v-2h2-1v-1h1v2h2v-2h1v1h1l-1-1v-1h1v2-1l1-1a7 7 0 0 1 0-1v10zm-5-4v1h1v-1a1 1 0 0 0-1 0m-3 5v1h1v-1zm1-4"/><path fill="#5bd7fe" d="M35 4v1h-2v1h-1l-2 1h-1l-3 1-1 1-1 1h-1l-3 1-2 1-3 2h-1v1-1 1h-1l-1 1v2h-1l-1 1a7 7 0 0 1 0-1V6l1-1V4zM21 7l-1-1-1 1v1l1 1 1-1h1zm-5 3 1-1a1 1 0 0 0-1 0l-1 1z"/><path fill="#ddeffc" d="M10 39h2a174 174 0 0 0 5-2l2-2 3-1 3-1a21 21 0 0 0 2-2 10 10 0 0 0 3-2v-1l1-1 1-2v-1l1-3-1-1h1v1a6 6 0 0 0 2 1 45 45 0 0 0 0 2 7 7 0 0 1-2 5 12 12 0 0 1-4 3l-9 4-7 3-1 1z"/><path fill="#0399f2" d="M25 41v-3l-1 1-1-1v1h-2v1-1h-1 1l1-1h1l2-1h1l1-1h1l1-1 2-1 2-1h1a5 5 0 0 0 2-2v-4h1v-3h2l1 1h2l1-1h1v6-6 1l-1 1v1-2h-1v1l1 1h-1v-1a1 1 0 0 0-1 0v1q1 0 0 0l-1-1v-1 1a1 1 0 0 1-1 1l1 1 1-1v1h-2v-2h-1v1h1-2v2l-1 1v1h1l-1 1v1h-2l1 1v-1h3l-1 1 1-1h-3a4336 4336 0 0 0-8 4l-2 1v2zm13-14v-1l-1 1zm1-1q0 1.5 0 0m1 0v-1z"/><path fill="#0384dd" d="M36 28v3a5 5 0 0 1-2 2h-1l-2 1-2 1-1 1h-1l-1 1h-1l-2 1h-1l-1 1h-1v1h-2l-1 1v-1l1-1 5-2 4-2 4-2a11 11 0 0 0 4-3z"/><path fill="#fbfcfc" d="m17 20-3 2-6 2-2 1-1-1 1-1 1-1 6-2 1-1v1z"/><path fill="#ddedfa" d="m38 21 1-1h2a6 6 0 0 0 3-2l1-1a5 5 0 0 0 1-2v-3l-1-1v-1l1 1a8 8 0 0 1 1 6c-1 3-4 4-7 5a6 6 0 0 1-2-1"/><path fill="#deeffb" d="M17 20h-3v-2h2l3-1a9 9 0 0 1 2-1 3 3 0 0 1 2 0v1l-3 2z"/><path fill="#0784d7" d="M44 25v-1h-1l-1 1h-2l-1-1h-2v2-2l7-1z"/><path fill="#6dd0f8" d="M35 4H11z"/><path fill="#5bb3d6" d="M11 4v1l-1 1v12V6l1-1z"/><path fill="#6bccea" d="M14 14h1l3-2 2-1 3-1-6 3z"/><path fill="#e3ecf6" d="m46 11-1-1v1-2l-1-1a8 8 0 0 1 2 2z"/><path fill="#020a14" d="M6 21V6h1v14z"/><path fill="#0784d7" d="M44 30v-5 8z"/><path fill="#6dcaeb" d="m25 9 1-1 3-1h1a4 4 0 0 1-1 0z"/><path fill="#131429" d="m34 12 1-1 3-1h1-1l-2 1h-1z"/><path fill="#0e0e29" d="m14 19-1 1v-1zv-1a1 1 0 0 1 0-1l1-1-1 1v1z"/><path fill="#012319" d="M47 5h1v4h-1z"/><path fill="#131429" d="M32 15a6 6 0 0 1 2-3l-1 1v1z"/><path fill="#5bb3d6" d="m10 19 1-1h1v-2 2z"/><path fill="#131429" d="M32 18a6 6 0 0 1 0-2v-1z"/><path fill="#1a1a33" d="m11 35 3-1-2 1zm3-1 2-1z"/><path fill="#6bccea" d="m25 9-2 1h1z"/><path fill="#6dcaeb" d="m30 7 2-1h-1z"/><path fill="#0399f2" d="M44 30v4z"/><path fill="#012319" d="M47 3v2-1a25 25 0 0 1 0-1"/><path fill="#1a1a33" d="m16 33 1-1z"/><path fill="#6dcaeb" d="M33 5h1z"/><path fill="#5bb3d6" d="m12 16 1-1z"/><path fill="#131429" d="M39 10v1z"/><path fill="#6dcaeb" d="M32 6h1zm2-1h1z"/><path fill="#012319" d="M47 3a5 5 0 0 1-1 0"/><path fill="#131429" d="M32 19v-1z"/><path fill="#012319" d="M48 11h1a6 6 0 0 1-1 0"/><path fill="#0784d7" d="M44 35v-1z"/><path fill="#131429" d="m33 20-1-1z"/><path fill="#012319" d="M48 9v1a2 2 0 0 1 0-1m0 1v1a2 2 0 0 1 0-1m-3-8h1a1 1 0 0 1-1 0M7 6H6V5zm41 3"/><path fill="#6dcaeb" d="M35 5V4z"/><path fill="#6bccea" d="M14 15v-1m-1 1"/><path fill="#050b33" d="M22 26h2v1a34 34 0 0 1-2 1h-1v-1z"/><path fill="#070a36" d="M27 26h-1a1 1 0 0 1 0-1l1-1a1 1 0 0 1 0 1q1.5 0 0 0z"/><path fill="#f2fdfe" d="M39 31a1 1 0 0 1 1 0v1a1 1 0 0 1-1 0z"/><path fill="#0399f2" d="M37 34v1h-1v1h-1v1h-1l-1 1h-2 1zm-7 5-1 1-1 1h-3 3v-1Zm0 0"/><path fill="#d9f8fd" d="M36 36h1v1h-1z"/><path fill="#0399f2" d="M31 39h-1zm0-1a2 2 0 0 1 0 1zm13-8"/><path fill="#f7fefe" d="m21 7 1 1h-1l-1 1-1-1V7l1-1zm-5 3h-1l1-1a1 1 0 0 1 1 0z"/><path fill="#fbfeff" d="M25 40v-2l2-1 8-4a29 29 0 0 1 2 0l-1 1-2 2-2 1-2 1-1 1h-2l-1 1z"/><path fill="#d5effd" d="M25 40h1l1-1h2l1-1 2-1 2-1 2-2h1l1-1-1 1-5 4h-1v1h-1l-2 1v1a2 2 0 0 1-3 0 5 5 0 0 1 0-1"/><path fill="#ebfafd" d="m41 27-1 1-1-1a1 1 0 0 0 1-1v-1 1z"/><path fill="#029cf2" d="M38 27h-1l1-1zm1-1q0 1.5 0 0m1 0v-1z"/><path fill="#d5effd" d="M25 38v1a1 1 0 0 1 0-1m12-5"/></svg>